<svg width="24" height="24" viewBox="0 0 24 24" fill="none" xmlns="http://www.w3.org/2000/svg">
<path d="M11.3993 2.10048L2.20685 11.293C2.01938 11.4805 1.91406 11.7348 1.91406 12C1.91406 12.2651 2.01938 12.5194 2.20685 12.707L11.3998 21.9C11.5874 22.0874 11.8417 22.1928 12.1068 22.1928C12.372 22.1928 12.6263 22.0874 12.8138 21.9L22.0063 12.7075C22.1938 12.5199 22.2991 12.2656 22.2991 12.0005C22.2991 11.7353 22.1938 11.481 22.0063 11.2935L12.8133 2.09998C12.6258 1.91251 12.3715 1.80719 12.1063 1.80719C11.8412 1.80719 11.5869 1.91251 11.3993 2.09998V2.10048Z" stroke="white" stroke-width="1.5" stroke-linejoin="round"/>
<path d="M8.99976 12H14.9998M11.9998 9V15" stroke="white" stroke-width="1.5" stroke-linecap="round"/>
</svg>
