<svg width="24" height="24" viewBox="0 0 24 24" fill="none" xmlns="http://www.w3.org/2000/svg">
<path d="M12 13.6C13.0874 13.6 14.1302 13.168 14.8991 12.3991C15.668 11.6302 16.1 10.5874 16.1 9.5C16.1 8.41261 15.668 7.36976 14.8991 6.60086C14.1302 5.83196 13.0874 5.4 12 5.4C10.9126 5.4 9.86976 5.83196 9.10086 6.60086C8.33196 7.36976 7.9 8.41261 7.9 9.5C7.9 10.5874 8.33196 11.6302 9.10086 12.3991C9.86976 13.168 10.9126 13.6 12 13.6ZM13.1098 12.1793C12.7579 12.325 12.3808 12.4 12 12.4C11.2309 12.4 10.4932 12.0945 9.94939 11.5506C9.40553 11.0068 9.1 10.2691 9.1 9.5C9.1 8.73087 9.40553 7.99325 9.94939 7.44939C10.4932 6.90553 11.2309 6.6 12 6.6C12.3808 6.6 12.7579 6.67501 13.1098 6.82075C13.4616 6.96649 13.7813 7.1801 14.0506 7.44939C14.3199 7.71868 14.5335 8.03837 14.6793 8.39022C14.825 8.74206 14.9 9.11917 14.9 9.5C14.9 9.88083 14.825 10.2579 14.6793 10.6098C14.5335 10.9616 14.3199 11.2813 14.0506 11.5506C13.7813 11.8199 13.4616 12.0335 13.1098 12.1793Z" fill="white" stroke="white" stroke-width="0.2"/>
<path d="M12.0002 20.9H11.9998C10.2788 20.9031 8.59435 20.4044 7.15259 19.465C7.0363 19.3195 6.91841 19.1692 6.79893 19.0142C6.66929 18.8444 6.59936 18.6365 6.6 18.4228V18.4225C6.6 17.9323 6.9519 17.5241 7.41894 17.456L7.41896 17.4559C10.8308 16.9575 13.1777 17.0002 16.5964 17.4735C16.8205 17.5064 17.0251 17.619 17.1728 17.7907C17.3205 17.9625 17.4012 18.1819 17.4 18.4085V18.409C17.4 18.6263 17.3253 18.8367 17.1912 19.0005C17.0413 19.1829 16.8938 19.359 16.7488 19.5286C15.3284 20.4274 13.6813 20.9031 12.0002 20.9ZM3.1 12.0001V12C3.1 7.08473 7.08473 3.1 12 3.1C16.9153 3.1 20.9 7.08473 20.9 12V12.0001C20.9031 14.2287 20.0672 16.3741 18.5632 18.0118C18.3978 17.1269 17.69 16.4134 16.7612 16.2849C13.2451 15.7983 10.7835 15.7515 7.24554 16.2686C6.31125 16.4048 5.60603 17.1256 5.43829 18.0134C3.93337 16.3755 3.09695 14.2295 3.1 12.0001ZM12 22.1C17.5782 22.1 22.1 17.5782 22.1 12C22.1 6.42177 17.5782 1.9 12 1.9C6.42177 1.9 1.9 6.42177 1.9 12C1.9 17.5782 6.42177 22.1 12 22.1Z" fill="white" stroke="white" stroke-width="0.2"/>
</svg>
