<svg width="38" height="22" viewBox="0 0 38 22" fill="none" xmlns="http://www.w3.org/2000/svg">
<path d="M0 5.47083H2.93601L2.01311 2.92342H4.71164L3.96685 0.510925C7.30763 0.732205 10.2814 1.92496 13.1419 3.46312C10.6592 2.79928 8.21974 1.99512 5.55359 1.6605C5.78026 2.37291 5.99614 2.97199 6.15806 3.58726C7.15831 7.46235 8.14418 11.3428 9.11565 15.2287C9.26137 15.7684 9.19121 16.524 9.53122 16.8802C9.87124 17.2364 10.5729 17.1123 11.118 17.1879C13.3038 17.4955 15.4356 17.9543 17.3786 19.093C17.7572 19.3248 18.118 19.5846 18.458 19.8702C14.1504 19.5586 9.82398 20.109 5.73169 21.4893C4.49576 15.9573 2.84426 10.5549 0 5.47083ZM3.56207 3.72758C3.75636 4.19712 3.91287 4.56952 4.06399 4.94732C5.66072 9.17795 6.95919 13.5152 7.94988 17.9273C8.08481 18.467 8.30609 18.5803 8.82421 18.5641C10.222 18.5209 11.6199 18.5155 13.0177 18.5641C13.8435 18.5641 14.6692 18.7314 15.495 18.8232C15.3446 18.6792 15.1582 18.5785 14.9553 18.5317C13.1539 18.0885 11.2981 17.9068 9.44487 17.992C8.90516 17.992 8.71627 17.8355 8.58674 17.3336C7.41018 12.8864 6.22282 8.45541 5.05166 4.02981C4.99229 3.80853 4.90594 3.59805 4.83038 3.36598L3.56207 3.72758ZM7.25906 19.7623L3.20046 5.8918L1.82961 6.32897C3.83873 10.8648 5.418 15.5791 6.54665 20.4099L9.82267 19.5464L9.79028 19.3899L7.25906 19.7623Z" fill="#00ABFF"/>
<path d="M32.404 1.52005L24.7078 3.46839C27.6816 1.93562 30.6446 0.742868 34.0069 0.5L33.2567 2.91789H35.9553L35.0108 5.44911H37.9468C35.1619 10.5547 33.4618 15.9302 32.2367 21.5C28.121 20.1013 23.7611 19.5667 19.4294 19.9295C20.4043 19.0493 21.5786 18.4195 22.8512 18.0944C24.4703 17.6735 26.1704 17.3928 27.8381 17.1068C28.3292 17.0204 28.5397 16.8963 28.6476 16.3512C29.5169 11.4951 30.7417 6.70939 32.3122 2.03277C32.3392 1.95181 32.3446 1.86546 32.404 1.52005ZM33.1596 3.35505C33.0786 3.56554 32.9977 3.73824 32.9437 3.89476C32.6091 5.0983 32.2583 6.29645 31.9452 7.5054C31.0997 10.776 30.2614 14.0484 29.4302 17.3227C29.3115 17.7814 29.0956 17.9379 28.5883 17.9541C27.1041 18.0027 25.6199 18.1106 24.1411 18.2618C23.5199 18.364 22.9067 18.5101 22.3061 18.6989L29.9052 18.3535C31.1141 13.4961 32.3824 8.52005 34.4009 3.70046L33.1596 3.35505ZM31.4433 20.4152C32.5593 15.5787 34.1352 10.8599 36.1496 6.32344L34.7841 5.89707C33.4133 10.5655 32.0856 15.1692 30.7255 19.746L28.2698 19.3951V19.5571L31.4433 20.4152Z" fill="#00ABFF"/>
<path d="M3.56201 3.72744L4.83032 3.35504C4.90588 3.58712 4.99224 3.7976 5.0516 4.01888C6.22277 8.44448 7.39933 12.8755 8.5489 17.3119C8.67843 17.8138 8.84574 17.9919 9.40704 17.9703C11.2602 17.885 13.116 18.0668 14.9174 18.51C15.1203 18.5567 15.3068 18.6574 15.4572 18.8015C14.6314 18.7097 13.8056 18.564 12.9799 18.5424C11.5821 18.4938 10.1842 18.4992 8.78637 18.5424C8.24667 18.5424 8.04698 18.456 7.91205 17.9055C6.93151 13.5109 5.64568 9.18993 4.06394 4.97416C3.91282 4.56938 3.75631 4.19698 3.56201 3.72744Z" fill="#171B36"/>
<path d="M7.25898 19.7621L9.79021 19.3789L9.82259 19.5355L6.54657 20.4098C5.41792 15.579 3.83865 10.8647 1.82953 6.32882L3.20038 5.89166L7.25898 19.7621Z" fill="#171B36"/>
<path d="M33.1595 3.35504L34.4009 3.72204C32.3824 8.54163 31.114 13.5177 29.9051 18.3751L22.306 18.7205C22.9066 18.5316 23.5198 18.3856 24.141 18.2833C25.6198 18.1322 27.104 18.0243 28.5882 17.9757C29.0955 17.9757 29.3114 17.803 29.4302 17.3442C30.2613 14.07 31.0997 10.7976 31.9452 7.52698C32.2582 6.31803 32.609 5.11988 32.9437 3.91634C32.9976 3.74903 33.0786 3.57632 33.1595 3.35504Z" fill="#171B36"/>
<path d="M31.4433 20.4152L28.2482 19.5463V19.3844L30.7039 19.7352C32.0424 15.1585 33.4024 10.5602 34.7625 5.88629L36.128 6.31266C34.1203 10.8534 32.5516 15.5757 31.4433 20.4152Z" fill="#171B36"/>
</svg>
